<mxfile host="app.diagrams.net" modified="2022-07-10T11:35:36.946Z" agent="5.0 (Windows NT 10.0; Win64; x64) AppleWebKit/537.36 (KHTML, like Gecko) Chrome/103.0.0.0 Safari/537.36" etag="4hJ2zkXtfnkBtdH9DZiE" version="20.0.4" type="github">
  <diagram id="Z9USFGTLJIX7_FAzGUqJ" name="Page-1">
    <mxGraphModel dx="3333" dy="3340" grid="0" gridSize="10" guides="1" tooltips="1" connect="1" arrows="1" fold="1" page="1" pageScale="1" pageWidth="827" pageHeight="1169" math="0" shadow="0">
      <root>
        <mxCell id="0" />
        <mxCell id="1" parent="0" />
        <mxCell id="dVGMr21RCzNyEH1sTANa-41" value="Metal Workshop" style="rounded=0;whiteSpace=wrap;html=1;fillColor=#008a00;fontColor=#ffffff;fontSize=20;strokeColor=none;" parent="1" vertex="1">
          <mxGeometry x="-332.1182266009852" y="-1016.9341489744512" width="730.0492610837439" height="276.8981648074847" as="geometry" />
        </mxCell>
        <mxCell id="dVGMr21RCzNyEH1sTANa-31" value="Storage Hallway" style="rounded=0;whiteSpace=wrap;html=1;fillColor=#008a00;fontColor=#ffffff;fontSize=20;strokeColor=none;" parent="1" vertex="1">
          <mxGeometry x="881.4285714285713" y="-1021.8567830154732" width="134.48275862068965" height="1532.169845268082" as="geometry" />
        </mxCell>
        <mxCell id="dVGMr21RCzNyEH1sTANa-30" value="Common Room" style="rounded=0;whiteSpace=wrap;html=1;fillColor=#008a00;fontColor=#ffffff;fontSize=20;strokeColor=none;" parent="1" vertex="1">
          <mxGeometry x="100.14778325123154" y="-75.48038862900307" width="762.0689655172414" height="578.4094998200792" as="geometry" />
        </mxCell>
        <mxCell id="dVGMr21RCzNyEH1sTANa-29" value="Electronics Room" style="rounded=0;whiteSpace=wrap;html=1;fillColor=#008a00;fontColor=#ffffff;fontSize=20;strokeColor=none;" parent="1" vertex="1">
          <mxGeometry x="-764.384236453202" y="262.950701691256" width="851.7241379310344" height="239.9784094998201" as="geometry" />
        </mxCell>
        <mxCell id="dVGMr21RCzNyEH1sTANa-27" value="Woodturning Area" style="rounded=0;whiteSpace=wrap;html=1;fillColor=#008a00;fontColor=#ffffff;fontSize=20;strokeColor=none;" parent="1" vertex="1">
          <mxGeometry x="-258.4729064039409" y="-333.91867578265555" width="1120.6896551724137" height="246.13170205109753" as="geometry" />
        </mxCell>
        <mxCell id="dVGMr21RCzNyEH1sTANa-26" value="Wood Workshop" style="rounded=0;whiteSpace=wrap;html=1;fillColor=#008a00;fontColor=#ffffff;fontSize=20;strokeColor=none;" parent="1" vertex="1">
          <mxGeometry x="-335.320197044335" y="-727.7293990644116" width="730.0492610837439" height="633.7891327815762" as="geometry" />
        </mxCell>
        <mxCell id="dVGMr21RCzNyEH1sTANa-25" value="" style="rounded=0;whiteSpace=wrap;html=1;fillColor=#008a00;fontColor=#ffffff;fontSize=20;strokeColor=none;" parent="1" vertex="1">
          <mxGeometry x="-764.384236453202" y="-1016.9341489744512" width="429.064039408867" height="1261.424973011875" as="geometry" />
        </mxCell>
        <mxCell id="dVGMr21RCzNyEH1sTANa-2" value="Welding Area" style="rounded=0;whiteSpace=wrap;html=1;fillColor=#6a00ff;strokeColor=#3700CC;fontColor=#ffffff;fontSize=20;" parent="1" vertex="1">
          <mxGeometry x="73.25123152709364" y="-1016.9341489744512" width="121.67487684729063" height="92.29938826916157" as="geometry" />
        </mxCell>
        <mxCell id="dVGMr21RCzNyEH1sTANa-3" value="CoMS Storage" style="rounded=0;whiteSpace=wrap;html=1;fillColor=#6a00ff;strokeColor=#3700CC;fontColor=#ffffff;fontSize=20;" parent="1" vertex="1">
          <mxGeometry x="881.4285714285713" y="146.0381432169845" width="128.07881773399015" height="367.9668945663908" as="geometry" />
        </mxCell>
        <mxCell id="dVGMr21RCzNyEH1sTANa-4" value="Public Storage" style="rounded=0;whiteSpace=wrap;html=1;fillColor=#6a00ff;strokeColor=#3700CC;fontColor=#ffffff;fontSize=20;" parent="1" vertex="1">
          <mxGeometry x="477.9802955665025" y="-272.3857502698812" width="384.23645320197045" height="184.59877653832314" as="geometry" />
        </mxCell>
        <mxCell id="dVGMr21RCzNyEH1sTANa-5" value="Wood Storage" style="rounded=0;whiteSpace=wrap;html=1;fillColor=#6a00ff;strokeColor=#3700CC;fontColor=#ffffff;fontSize=20;" parent="1" vertex="1">
          <mxGeometry x="196.20689655172418" y="-143.16660669305497" width="275.3694581280788" height="55.379632961496945" as="geometry" />
        </mxCell>
        <mxCell id="dVGMr21RCzNyEH1sTANa-6" value="Handheld Wood Tool Wall" style="rounded=0;whiteSpace=wrap;html=1;fillColor=#6a00ff;strokeColor=#3700CC;fontColor=#ffffff;fontSize=20;" parent="1" vertex="1">
          <mxGeometry x="-232.8571428571429" y="-106.2468513853903" width="320.1970443349754" height="18.459877653832315" as="geometry" />
        </mxCell>
        <mxCell id="dVGMr21RCzNyEH1sTANa-7" value="&lt;font style=&quot;font-size: 20px;&quot;&gt;Measuring shelf&lt;/font&gt;" style="rounded=0;whiteSpace=wrap;html=1;fillColor=#6a00ff;strokeColor=#3700CC;fontColor=#ffffff;fontSize=20;" parent="1" vertex="1">
          <mxGeometry x="-322.51231527093597" y="-130.86002159050008" width="83.2512315270936" height="43.07304785894207" as="geometry" />
        </mxCell>
        <mxCell id="dVGMr21RCzNyEH1sTANa-8" value="&lt;font style=&quot;font-size: 20px;&quot;&gt;Roubo Workbench (?)&lt;/font&gt;" style="rounded=0;whiteSpace=wrap;html=1;fillColor=#6a00ff;strokeColor=#3700CC;fontColor=#ffffff;fontSize=20;" parent="1" vertex="1">
          <mxGeometry x="-66.35467980295562" y="-383.1450161928751" width="130.64039408866995" height="61.53292551277438" as="geometry" />
        </mxCell>
        <mxCell id="dVGMr21RCzNyEH1sTANa-9" value="&lt;font style=&quot;font-size: 20px;&quot;&gt;CNC Area&lt;/font&gt;" style="rounded=0;whiteSpace=wrap;html=1;fillColor=#6a00ff;strokeColor=#3700CC;fontColor=#ffffff;fontSize=20;" parent="1" vertex="1">
          <mxGeometry x="-757.9802955665025" y="96.81180280676517" width="358.6206896551724" height="153.83231378193597" as="geometry" />
        </mxCell>
        <mxCell id="dVGMr21RCzNyEH1sTANa-10" value="&lt;font style=&quot;font-size: 20px;&quot;&gt;Precious Plastics Area&lt;/font&gt;" style="rounded=0;whiteSpace=wrap;html=1;fillColor=#6a00ff;strokeColor=#3700CC;fontColor=#ffffff;fontSize=20;" parent="1" vertex="1">
          <mxGeometry x="-757.9802955665025" y="-69.32709607772563" width="64.03940886699507" height="159.9856063332134" as="geometry" />
        </mxCell>
        <mxCell id="dVGMr21RCzNyEH1sTANa-11" value="&lt;font style=&quot;font-size: 20px;&quot;&gt;Office&lt;/font&gt;" style="rounded=0;whiteSpace=wrap;html=1;fillColor=#6a00ff;strokeColor=#3700CC;fontColor=#ffffff;fontSize=20;" parent="1" vertex="1">
          <mxGeometry x="-322.51231527093597" y="-78.5570349046418" width="409.85221674876846" height="329.20115149334293" as="geometry" />
        </mxCell>
        <mxCell id="dVGMr21RCzNyEH1sTANa-12" value="&lt;font style=&quot;font-size: 20px;&quot;&gt;3D Printing Area&lt;/font&gt;" style="rounded=0;whiteSpace=wrap;html=1;fillColor=#6a00ff;strokeColor=#3700CC;fontColor=#ffffff;fontSize=20;" parent="1" vertex="1">
          <mxGeometry x="-316.10837438423647" y="262.950701691256" width="403.44827586206895" height="49.22634041021951" as="geometry" />
        </mxCell>
        <mxCell id="dVGMr21RCzNyEH1sTANa-13" value="&lt;font style=&quot;font-size: 20px;&quot;&gt;Laser Area&lt;/font&gt;" style="rounded=0;whiteSpace=wrap;html=1;fillColor=#6a00ff;strokeColor=#3700CC;fontColor=#ffffff;fontSize=20;" parent="1" vertex="1">
          <mxGeometry x="-559.4581280788177" y="453.70277078085655" width="403.44827586206895" height="49.22634041021951" as="geometry" />
        </mxCell>
        <mxCell id="dVGMr21RCzNyEH1sTANa-14" value="&lt;font style=&quot;font-size: 20px;&quot;&gt;Electronics Workbenches&lt;/font&gt;" style="rounded=0;whiteSpace=wrap;html=1;fillColor=#6a00ff;strokeColor=#3700CC;fontColor=#ffffff;fontSize=20;" parent="1" vertex="1">
          <mxGeometry x="-693.9408866995074" y="262.950701691256" width="294.5812807881773" height="49.22634041021951" as="geometry" />
        </mxCell>
        <mxCell id="dVGMr21RCzNyEH1sTANa-15" value="&lt;font style=&quot;font-size: 20px;&quot;&gt;Electronics Shelf&lt;/font&gt;" style="rounded=0;whiteSpace=wrap;html=1;fillColor=#6a00ff;strokeColor=#3700CC;fontColor=#ffffff;fontSize=20;" parent="1" vertex="1">
          <mxGeometry x="-757.9802955665025" y="262.950701691256" width="44.82758620689655" height="239.9784094998201" as="geometry" />
        </mxCell>
        <mxCell id="dVGMr21RCzNyEH1sTANa-16" value="&lt;font style=&quot;font-size: 20px;&quot;&gt;?????&lt;/font&gt;" style="rounded=0;whiteSpace=wrap;html=1;fillColor=#6a00ff;strokeColor=#3700CC;fontColor=#ffffff;fontSize=20;" parent="1" vertex="1">
          <mxGeometry x="-149.60591133004925" y="453.70277078085655" width="236.94581280788177" height="49.22634041021951" as="geometry" />
        </mxCell>
        <mxCell id="dVGMr21RCzNyEH1sTANa-17" value="Office Supply Shelf" style="rounded=0;whiteSpace=wrap;html=1;fillColor=#6a00ff;strokeColor=#3700CC;fontColor=#ffffff;fontSize=20;" parent="1" vertex="1">
          <mxGeometry x="426.7487684729065" y="453.70277078085655" width="230.54187192118226" height="49.22634041021951" as="geometry" />
        </mxCell>
        <mxCell id="dVGMr21RCzNyEH1sTANa-18" value="Personal Protection Shelf" style="rounded=0;whiteSpace=wrap;html=1;fillColor=#6a00ff;strokeColor=#3700CC;fontColor=#ffffff;fontSize=20;" parent="1" vertex="1">
          <mxGeometry x="198.12807881773404" y="-70.55775458798121" width="108.86699507389163" height="49.22634041021951" as="geometry" />
        </mxCell>
        <mxCell id="dVGMr21RCzNyEH1sTANa-19" value="Lockers" style="rounded=0;whiteSpace=wrap;html=1;fillColor=#6a00ff;strokeColor=#3700CC;fontColor=#ffffff;fontSize=20;" parent="1" vertex="1">
          <mxGeometry x="543.9408866995075" y="-70.55775458798121" width="48.029556650246306" height="243.0550557754588" as="geometry" />
        </mxCell>
        <mxCell id="dVGMr21RCzNyEH1sTANa-20" value="Sewing Corner" style="rounded=0;whiteSpace=wrap;html=1;fillColor=#6a00ff;strokeColor=#3700CC;fontColor=#ffffff;fontSize=20;" parent="1" vertex="1">
          <mxGeometry x="598.3743842364531" y="-70.55775458798121" width="105.66502463054186" height="33.84310903202591" as="geometry" />
        </mxCell>
        <mxCell id="dVGMr21RCzNyEH1sTANa-21" value="Gaming &amp;amp; Chillout Zone" style="rounded=0;whiteSpace=wrap;html=1;fillColor=#6a00ff;strokeColor=#3700CC;fontColor=#ffffff;fontSize=20;" parent="1" vertex="1">
          <mxGeometry x="697.6354679802955" y="-70.55775458798121" width="166.5024630541872" height="224.5951781216265" as="geometry" />
        </mxCell>
        <mxCell id="dVGMr21RCzNyEH1sTANa-22" value="Kitchen" style="rounded=0;whiteSpace=wrap;html=1;fillColor=#6a00ff;strokeColor=#3700CC;fontColor=#ffffff;fontSize=20;" parent="1" vertex="1">
          <mxGeometry x="650.886699507389" y="256.7974091399785" width="198.52216748768473" height="246.13170205109753" as="geometry" />
        </mxCell>
        <mxCell id="dVGMr21RCzNyEH1sTANa-23" value="Vehicle Workspaces (needed?)" style="rounded=0;whiteSpace=wrap;html=1;fillColor=#6a00ff;strokeColor=#3700CC;fontColor=#ffffff;fontSize=20;" parent="1" vertex="1">
          <mxGeometry x="397.9310344827586" y="-1016.9341489744512" width="464.2857142857143" height="683.0154731917956" as="geometry" />
        </mxCell>
        <mxCell id="dVGMr21RCzNyEH1sTANa-24" value="Woodturning Area" style="rounded=0;whiteSpace=wrap;html=1;fillColor=#6a00ff;strokeColor=#3700CC;fontColor=#ffffff;fontSize=20;" parent="1" vertex="1">
          <mxGeometry x="-757.9802955665025" y="-1016.9341489744512" width="172.9064039408867" height="209.21194674343292" as="geometry" />
        </mxCell>
        <mxCell id="dVGMr21RCzNyEH1sTANa-33" value="Sanding Area" style="rounded=0;whiteSpace=wrap;html=1;fillColor=#6a00ff;strokeColor=#3700CC;fontColor=#ffffff;fontSize=20;" parent="1" vertex="1">
          <mxGeometry x="-757.9802955665025" y="-807.7222022310184" width="76.84729064039409" height="110.75926592299389" as="geometry" />
        </mxCell>
        <mxCell id="dVGMr21RCzNyEH1sTANa-34" value="Drilling Table" style="rounded=0;whiteSpace=wrap;html=1;fillColor=#6a00ff;strokeColor=#3700CC;fontColor=#ffffff;fontSize=20;" parent="1" vertex="1">
          <mxGeometry x="-757.9802955665025" y="-690.8096437567469" width="76.84729064039409" height="110.75926592299389" as="geometry" />
        </mxCell>
        <mxCell id="dVGMr21RCzNyEH1sTANa-35" value="Glueing Area" style="rounded=0;whiteSpace=wrap;html=1;fillColor=#6a00ff;strokeColor=#3700CC;fontColor=#ffffff;fontSize=20;" parent="1" vertex="1">
          <mxGeometry x="-757.9802955665025" y="-573.8970852824757" width="76.84729064039409" height="129.2191435768262" as="geometry" />
        </mxCell>
        <mxCell id="dVGMr21RCzNyEH1sTANa-36" value="Saw Stations" style="rounded=0;whiteSpace=wrap;html=1;fillColor=#6a00ff;strokeColor=#3700CC;fontColor=#ffffff;fontSize=20;" parent="1" vertex="1">
          <mxGeometry x="-757.9802955665025" y="-438.524649154372" width="76.84729064039409" height="363.0442605253689" as="geometry" />
        </mxCell>
        <mxCell id="dVGMr21RCzNyEH1sTANa-37" value="Router Table" style="rounded=0;whiteSpace=wrap;html=1;fillColor=#6a00ff;strokeColor=#3700CC;fontColor=#ffffff;fontSize=20;" parent="1" vertex="1">
          <mxGeometry x="-585.0738916256157" y="-437.29399064411655" width="153.69458128078819" height="97.22202231018352" as="geometry" />
        </mxCell>
        <mxCell id="dVGMr21RCzNyEH1sTANa-38" value="Tool Carrousel" style="rounded=0;whiteSpace=wrap;html=1;fillColor=#6a00ff;strokeColor=#3700CC;fontColor=#ffffff;fontSize=20;" parent="1" vertex="1">
          <mxGeometry x="-380.14778325123154" y="-431.1406980928391" width="153.69458128078819" height="97.22202231018352" as="geometry" />
        </mxCell>
        <mxCell id="dVGMr21RCzNyEH1sTANa-39" value="Clamp Cart" style="rounded=0;whiteSpace=wrap;html=1;fillColor=#6a00ff;strokeColor=#3700CC;fontColor=#ffffff;fontSize=20;" parent="1" vertex="1">
          <mxGeometry x="-380.14778325123154" y="-327.7653832313781" width="153.69458128078819" height="97.22202231018352" as="geometry" />
        </mxCell>
        <mxCell id="dVGMr21RCzNyEH1sTANa-40" value="Metal Workbenches" style="rounded=0;whiteSpace=wrap;html=1;fillColor=#6a00ff;strokeColor=#3700CC;fontColor=#ffffff;fontSize=20;" parent="1" vertex="1">
          <mxGeometry x="-284.0886699507389" y="-1016.9341489744512" width="345.8128078817734" height="55.379632961496945" as="geometry" />
        </mxCell>
      </root>
    </mxGraphModel>
  </diagram>
</mxfile>
